<svg width="46" height="29" viewBox="0 0 46 29" fill="none" xmlns="http://www.w3.org/2000/svg">
<path d="M22.9999 28.9561C7.47492 28.9561 0.479102 15.9967 0.191602 15.4529C-6.50994e-05 15.0904 -6.50994e-05 14.7279 0.191602 14.3654C0.479102 13.8217 7.47492 0.862305 22.9999 0.862305C38.5249 0.862305 45.5208 13.8217 45.8083 14.3654C45.9999 14.7279 45.9999 15.0904 45.8083 15.4529C45.5208 16.0873 38.5249 28.9561 22.9999 28.9561ZM2.77908 14.9998C4.21658 17.3561 10.8291 26.5998 22.9999 26.5998C35.1708 26.5998 41.7833 17.3561 43.2208 14.9998C41.7833 12.6436 35.1708 3.39982 22.9999 3.39982C10.8291 3.39982 4.21658 12.6436 2.77908 14.9998Z" fill="#0B7FAB"/>
<path d="M22.9998 26.4186C16.2915 26.4186 10.9248 21.2529 10.9248 14.9998C10.9248 8.74669 16.3873 3.58105 22.9998 3.58105C29.6123 3.58105 35.0748 8.74669 35.0748 14.9998C35.0748 21.2529 29.7081 26.4186 22.9998 26.4186ZM22.9998 5.93731C17.729 5.93731 13.4165 10.0154 13.4165 14.9998C13.4165 19.9842 17.729 24.0623 22.9998 24.0623C28.2706 24.0623 32.5831 19.9842 32.5831 14.9998C32.5831 10.0154 28.2706 5.93731 22.9998 5.93731Z" fill="#0B7FAB"/>
<path d="M22.9998 21.3439C19.3582 21.3439 16.2915 18.5346 16.2915 15.0002C16.2915 14.3658 16.8665 13.8221 17.5373 13.8221C18.2082 13.8221 18.7832 14.3658 18.7832 15.0002C18.7832 17.1752 20.604 18.8971 22.904 18.8971C25.204 18.8971 27.0248 17.1752 27.0248 15.0002C27.0248 12.8252 25.204 11.1033 22.904 11.1033C22.2332 11.1033 21.6582 10.5596 21.6582 9.92518C21.6582 9.29081 22.2332 8.74707 22.904 8.74707C26.5457 8.74707 29.6123 11.5564 29.6123 15.0908C29.6123 18.6252 26.6415 21.3439 22.9998 21.3439Z" fill="#0B7FAB"/>
</svg>
