<svg width="98" height="122" viewBox="0 0 98 122" fill="none" xmlns="http://www.w3.org/2000/svg">
<path d="M51.7956 56.3867C44.5284 56.3905 37.5249 59.3596 32.16 64.7111C26.7951 70.0627 23.4561 77.4101 22.7986 85.3112H22.4966V91.8041H22.8746C23.6873 99.5581 27.0834 106.715 32.4163 111.913C37.7493 117.11 44.6467 119.985 51.7956 119.991C59.5214 119.991 66.9309 116.64 72.3939 110.676C77.8569 104.712 80.926 96.6234 80.9261 88.1889C80.9261 84.0126 80.1726 79.8772 78.7087 76.0188C77.2448 72.1603 75.099 68.6545 72.394 65.7014C69.689 62.7483 66.4777 60.4057 62.9434 58.8075C59.4091 57.2093 55.6211 56.3867 51.7956 56.3867ZM51.7956 62.5769C58.0176 62.5769 63.9848 65.2754 68.3845 70.0786C72.7841 74.8818 75.2558 81.3962 75.2557 88.1889C75.2557 94.9816 72.784 101.496 68.3844 106.299C63.9848 111.102 58.0176 113.801 51.7956 113.801C46.1501 113.796 40.6953 111.57 36.4322 107.529C32.1691 103.489 29.3836 97.9057 28.5867 91.8041H28.6989V85.3112H28.5024C29.1498 79.0601 31.882 73.2878 36.1779 69.0949C40.4739 64.902 46.0331 62.5819 51.7956 62.5769Z" fill="#E9723D"/>
<path opacity="0.985737" d="M62.9459 102.955H52.0132V109.482H62.9459V102.955Z" fill="#F4D75E"/>
<path opacity="0.985737" d="M62.9863 109.155L62.8569 67.2334L56.975 67.0877L57.1044 109.009L62.9863 109.155Z" fill="#F4D75E"/>
<path opacity="0.985737" d="M67.8544 67.0879H52.1069V73.6152H67.8544V67.0879Z" fill="#F4D75E"/>
<path opacity="0.985737" d="M63.1422 109.154L89.4487 71.7559L84.3073 67.0612L58.0007 104.46L63.1422 109.154Z" fill="#F4D75E"/>
<path opacity="0.985737" d="M95.2399 67.0615H84.3071V73.5889H95.2399V67.0615Z" fill="#F4D75E"/>
<path opacity="0.985737" d="M90.3183 109.129L90.189 67.207L84.307 67.0614L84.4364 108.983L90.3183 109.129Z" fill="#F4D75E"/>
<path opacity="0.985737" d="M95.1864 102.485H79.439V109.013H95.1864V102.485Z" fill="#F4D75E"/>
<path d="M46.8784 3.92976C46.8784 3.92976 43.8066 8.27821 44.1076 10.723C44.457 13.5597 49.1549 17.7212 49.1549 17.7212C49.1549 17.7212 54.2505 15.0534 56.079 12.9019C57.727 10.9627 56.8994 4.95631 56.8994 4.95631C56.8994 4.95631 55.7889 8.96453 54.229 10.4589C53.4285 11.2256 51.783 11.4419 51.783 11.4419C51.783 11.4419 51.7337 8.99054 53.1421 6.44521C54.5517 3.89792 59.9703 1.23982 59.9703 1.23982C59.9703 1.23982 52.9763 2.39748 50.2173 5.40939C49.3627 6.34233 47.0747 8.46027 47.0747 8.46027L46.8784 3.92976Z" fill="#E9723D"/>
<path d="M69.1305 36.5035C72.0897 36.5867 74.5179 34.2656 74.5542 31.3191C74.5904 28.3726 72.221 25.9165 69.2618 25.8333C66.3027 25.7501 63.8744 28.0712 63.8382 31.0177C63.8019 33.9642 66.1714 36.4203 69.1305 36.5035Z" fill="#0B7FAB"/>
<path d="M63.436 38.2544C66.1032 36.9302 70.0693 38.86 71.4698 41.5737C73.1061 44.7443 69.3381 50.6679 69.4689 54.2289C69.6334 58.7093 70.1646 64.6893 70.1646 64.6893C70.1646 64.6893 61.3261 54.8901 55.6797 58.529C45.8809 64.8438 57.4052 92.7102 57.4052 92.7102C57.4052 92.7102 39.4421 61.9086 50.6662 51.2921C54.2314 47.92 60.9287 51.0671 60.9287 51.0671C60.9287 51.0671 59.9 40.0099 63.436 38.2544Z" fill="#0B7FAB"/>
<path d="M49.8459 18.3244C49.8459 18.3244 51.0378 29.2604 54.5223 33.0567C57.3454 36.1325 66.038 37.7948 66.038 37.7948C66.0903 37.6401 62.0366 41.9617 61.2754 44.2174C61.2754 44.2174 53.5945 39.3849 50.9747 34.82C47.0666 28.0101 49.8459 18.3244 49.8459 18.3244Z" fill="#0B7FAB"/>
<path opacity="0.985737" d="M28.8047 67.7246H4.09375V73.6302H28.8047V67.7246Z" fill="#F4D75E"/>
<path opacity="0.985737" d="M30.1693 103.706H4.09375V109.612H30.1693V103.706Z" fill="#F4D75E"/>
<path opacity="0.985737" d="M12.1611 67.7412V109.61H18.3885V67.7412H12.1611Z" fill="#F4D75E"/>
<path d="M27.8616 67.6396C26.0518 67.6396 24.2598 67.9475 22.5878 68.5458C20.9158 69.1441 19.3966 70.021 18.1169 71.1265C16.8372 72.232 15.8221 73.5444 15.1296 74.9888C14.437 76.4332 14.0806 77.9813 14.0806 79.5447C14.0823 79.613 14.0847 79.6813 14.0878 79.7495C14.1154 78.8158 14.5095 77.8973 15.2414 77.0607C15.9734 76.2242 17.0248 75.4906 18.3194 74.9133V73.6404H23.1768C23.2034 73.6351 23.2302 73.6299 23.2569 73.6247H30.0702C32.1021 74.0542 33.8628 74.8527 35.1097 75.9102C36.3565 76.9676 37.0281 78.232 37.0318 79.529C37.0202 80.7744 36.3929 81.9895 35.23 83.0193C34.0671 84.0492 32.4213 84.847 30.5025 85.3111H28.699V85.3416V85.9932V91.427C32.2023 91.2427 35.4922 89.9106 37.8974 87.7025C40.3027 85.4944 41.6421 82.5767 41.6423 79.5447C41.6423 76.3873 40.1904 73.3592 37.606 71.1266C35.0217 68.894 31.5165 67.6397 27.8616 67.6396H27.8616ZM14.1013 80.1324C14.215 81.9509 14.8101 83.7225 15.8409 85.3111H14.4132V86.127H16.3988C17.8925 88.0677 20.0128 89.5871 22.4967 90.4965V85.9932V85.3416V85.3111H19.7509H18.3194V84.7627C17.0733 84.2068 16.0519 83.5058 15.3243 82.7071C14.5966 81.9083 14.1796 81.0304 14.1013 80.1324Z" fill="#F4D75E"/>
<path d="M29.8643 85.9482C29.4753 85.9489 29.0864 85.9638 28.6989 85.9929V91.274V91.8037C28.7403 91.8028 28.7817 91.8021 28.8231 91.8016C30.0172 91.8016 31.1996 91.957 32.3029 92.2589C33.4061 92.5608 34.4085 93.0033 35.2529 93.5612C36.0972 94.119 36.767 94.7813 37.224 95.5102C37.6809 96.239 37.9161 97.0202 37.9161 97.8092C37.9147 99.068 37.3148 100.295 36.2012 101.316C35.0876 102.337 33.5165 103.102 31.7097 103.502H25.9403H4.21967H4.15321H4.09375V103.746H4.15321V106.051H20.1038C21.377 107.17 22.8956 108.059 24.5713 108.668C26.2469 109.276 28.0461 109.591 29.8643 109.594C31.6655 109.594 33.4491 109.289 35.1133 108.694C36.7774 108.1 38.2894 107.229 39.5631 106.131C40.8368 105.033 41.8471 103.73 42.5363 102.296C43.2256 100.861 43.5803 99.3236 43.5803 97.771C43.5802 94.6354 42.1351 91.6282 39.5629 89.411C36.9906 87.1938 33.5019 85.9482 29.8643 85.9482ZM22.4966 87.8014C20.6496 88.8153 19.1111 90.1957 18.0097 91.8271C18.4457 91.8172 18.8826 91.812 19.3197 91.8117C19.7725 91.8117 20.2252 91.8168 20.6768 91.8271H22.4966V91.274V87.8014Z" fill="#F4D75E"/>
<path d="M22.8741 85.3115H22.4966V91.8055H22.8741V85.3115Z" fill="#F4D75E"/>
<path opacity="0.985737" d="M12.8838 85.9482V91.6632H22.4968V85.9482H12.8838ZM28.6991 85.9482V91.6632H29.8645V85.9482H28.6991Z" fill="#F4D75E"/>
<path d="M28.6986 85.3105H28.5195V91.8046H28.6986V85.3105Z" fill="#F4D75E"/>
</svg>
