<svg width="61" height="79" viewBox="0 0 61 79" fill="none" xmlns="http://www.w3.org/2000/svg">
<path d="M31.5576 36.9746C26.7791 36.9771 22.1741 38.924 18.6465 42.4332C15.1189 45.9424 12.9234 50.7605 12.491 55.9415H12.2925V60.1991H12.5411C13.0754 65.2837 15.3085 69.9768 18.8151 73.385C22.3216 76.7932 26.8569 78.6786 31.5576 78.6823C36.6376 78.6823 41.5096 76.4852 45.1017 72.5744C48.6938 68.6635 50.7119 63.3593 50.7119 57.8285C50.7119 55.09 50.2165 52.3782 49.2539 49.8481C48.2913 47.318 46.8804 45.019 45.1017 43.0826C43.3231 41.1461 41.2115 39.61 38.8876 38.562C36.5637 37.514 34.073 36.9746 31.5576 36.9746ZM31.5576 41.0337C35.6488 41.0338 39.5724 42.8032 42.4653 45.9529C45.3583 49.1025 46.9835 53.3743 46.9834 57.8285C46.9834 62.2827 45.3582 66.5545 42.4653 69.7041C39.5724 72.8537 35.6488 74.6231 31.5576 74.6231C27.8455 74.6203 24.2588 73.1602 21.4556 70.5107C18.6525 67.8613 16.8209 64.2001 16.2969 60.1991H16.3707V55.9415H16.2415C16.6672 51.8424 18.4637 48.0573 21.2884 45.3079C24.1132 42.5584 27.7686 41.037 31.5576 41.0337Z" fill="#E9723D"/>
<path opacity="0.985737" d="M38.8893 67.5117H31.7007V71.7919H38.8893V67.5117Z" fill="#F4D75E"/>
<path opacity="0.985737" d="M38.9156 71.5766L38.8306 44.0869L34.963 43.9914L35.0481 71.4811L38.9156 71.5766Z" fill="#F4D75E"/>
<path opacity="0.985737" d="M42.1167 43.9912H31.7622V48.2714H42.1167V43.9912Z" fill="#F4D75E"/>
<path opacity="0.985737" d="M39.018 71.5763L56.3154 47.0527L52.9348 43.9743L35.6373 68.4978L39.018 71.5763Z" fill="#F4D75E"/>
<path opacity="0.985737" d="M60.1237 43.9746H52.9351V48.2548H60.1237V43.9746Z" fill="#F4D75E"/>
<path opacity="0.985737" d="M56.8878 71.56L56.8027 44.0703L52.9352 43.9748L53.0202 71.4645L56.8878 71.56Z" fill="#F4D75E"/>
<path opacity="0.985737" d="M60.0884 67.2031H49.7339V71.4833H60.0884V67.2031Z" fill="#F4D75E"/>
<path d="M28.3243 2.57742C28.3243 2.57742 26.3044 5.42904 26.5023 7.03224C26.7319 8.89237 29.8208 11.6212 29.8208 11.6212C29.8208 11.6212 33.1713 9.87156 34.3736 8.46066C35.4573 7.18898 34.9133 3.25028 34.9133 3.25028C34.9133 3.25028 34.183 5.87873 33.1573 6.8587C32.631 7.36153 31.549 7.50343 31.549 7.50343C31.549 7.50343 31.5166 5.89591 32.4428 4.22676C33.3696 2.55631 36.9325 0.813077 36.9325 0.813077C36.9325 0.813077 32.3338 1.57243 30.5196 3.5476C29.9577 4.1594 28.4532 5.54833 28.4532 5.54833L28.3243 2.57742Z" fill="#E9723D"/>
<path d="M42.9555 23.9365C44.9012 23.991 46.4979 22.4688 46.5218 20.5367C46.5457 18.6045 44.9878 16.9939 43.0421 16.9395C41.0963 16.885 39.4997 18.4072 39.4758 20.3394C39.4519 22.2715 41.0098 23.882 42.9555 23.9365Z" fill="#0B7FAB"/>
<path d="M39.2119 25.0849C40.9656 24.2165 43.5731 25.4818 44.4939 27.2613C45.5697 29.3404 43.0922 33.2249 43.1781 35.56C43.2862 38.4981 43.6353 42.4194 43.6353 42.4194C43.6353 42.4194 37.8243 35.9939 34.1117 38.3802C27.6691 42.5215 35.2455 60.7945 35.2455 60.7945C35.2455 60.7945 23.4357 40.5969 30.8156 33.6348C33.1598 31.4234 37.5631 33.4869 37.5631 33.4869C37.5631 33.4869 36.887 26.2362 39.2119 25.0849Z" fill="#0B7FAB"/>
<path d="M30.2757 12.0161C30.2757 12.0161 31.0592 19.1873 33.3502 21.6767C35.2064 23.6936 40.9219 24.7833 40.9219 24.7833C40.9562 24.6819 38.2908 27.5159 37.7902 28.9951C37.7902 28.9951 32.74 25.8264 31.0176 22.833C28.448 18.3676 30.2757 12.0161 30.2757 12.0161Z" fill="#0B7FAB"/>
<path opacity="0.985737" d="M16.4402 44.4102H0.191895L0.191895 48.2827H16.4402V44.4102Z" fill="#F4D75E"/>
<path opacity="0.985737" d="M17.3375 68.0039H0.191895L0.191895 71.8764H17.3375V68.0039Z" fill="#F4D75E"/>
<path opacity="0.985737" d="M5.49658 44.4209V71.8761H9.59129V44.4209H5.49658Z" fill="#F4D75E"/>
<path d="M15.8198 44.3545C14.6298 44.3545 13.4515 44.5564 12.3521 44.9487C11.2527 45.341 10.2538 45.916 9.41234 46.641C8.5709 47.3659 7.90344 48.2265 7.44805 49.1736C6.99267 50.1208 6.75829 51.1359 6.7583 52.1611C6.75945 52.2059 6.76105 52.2506 6.76309 52.2954C6.7812 51.6831 7.04032 51.0808 7.5216 50.5322C8.00289 49.9837 8.69426 49.5026 9.54547 49.1241V48.2894H12.7394C12.7569 48.2859 12.7745 48.2825 12.7921 48.2791H17.272C18.6081 48.5607 19.7658 49.0844 20.5856 49.7778C21.4055 50.4712 21.8471 51.3003 21.8495 52.1508C21.8419 52.9675 21.4294 53.7643 20.6648 54.4395C19.9001 55.1148 18.818 55.638 17.5563 55.9423H16.3704V55.9623V56.3896V59.9527C18.674 59.8319 20.8372 58.9584 22.4187 57.5105C24.0003 56.0625 24.8809 54.1493 24.8811 52.1611C24.8811 50.0907 23.9264 48.105 22.2271 46.641C20.5278 45.177 18.223 44.3545 15.8198 44.3545H15.8198ZM6.77191 52.5465C6.8467 53.7389 7.23802 54.9006 7.91576 55.9423H6.97699V56.4773H8.2826C9.26478 57.75 10.6589 58.7462 12.2922 59.3426V56.3896V55.9623V55.9423H10.4867H9.54548V55.5827C8.72611 55.2182 8.05455 54.7585 7.57609 54.2348C7.09763 53.711 6.8234 53.1353 6.77191 52.5465Z" fill="#F4D75E"/>
<path d="M17.1369 56.3604C16.8811 56.3608 16.6254 56.3705 16.3706 56.3897V59.8526V60.2C16.3978 60.1994 16.4251 60.199 16.4523 60.1986C17.2374 60.1986 18.0149 60.3005 18.7403 60.4985C19.4658 60.6964 20.1249 60.9866 20.6801 61.3524C21.2353 61.7182 21.6757 62.1525 21.9761 62.6305C22.2766 63.1084 22.4312 63.6207 22.4312 64.138C22.4303 64.9635 22.0359 65.7679 21.3037 66.4376C20.5714 67.1074 19.5383 67.6087 18.3503 67.8707H14.5567H0.274693H0.230994H0.191895V68.0308H0.230994V69.5425H10.719C11.5562 70.2762 12.5548 70.8594 13.6566 71.2582C14.7584 71.6571 15.9414 71.8637 17.1369 71.866C18.3213 71.866 19.4941 71.6655 20.5883 71.2758C21.6825 70.8862 22.6767 70.3151 23.5142 69.5952C24.3517 68.8752 25.016 68.0206 25.4692 67.0799C25.9224 66.1393 26.1557 65.1311 26.1556 64.113C26.1556 62.0568 25.2054 60.0849 23.514 58.631C21.8227 57.1771 19.5288 56.3603 17.1369 56.3604ZM12.2924 57.5755C11.0779 58.2404 10.0663 59.1456 9.34212 60.2153C9.62878 60.2088 9.91606 60.2055 10.2035 60.2052C10.5012 60.2052 10.7989 60.2086 11.0958 60.2153H12.2924V59.8526V57.5755Z" fill="#F4D75E"/>
<path d="M12.5407 55.9424H12.2925V60.2007H12.5407V55.9424Z" fill="#F4D75E"/>
<path opacity="0.985737" d="M5.97168 56.3604V60.1079H12.2926V56.3604H5.97168ZM16.3708 56.3604V60.1079H17.1371V56.3604H16.3708Z" fill="#F4D75E"/>
<path d="M16.3702 55.9424H16.2524V60.2008H16.3702V55.9424Z" fill="#F4D75E"/>
</svg>
